<svg width="22" height="21" viewBox="0 0 22 21" fill="none" xmlns="http://www.w3.org/2000/svg">
<path d="M16.75 20.16L14 17.16L15.16 16L16.75 17.59L20.34 14L21.5 15.41L16.75 20.16ZM9 13H11V15H9V13ZM9 5H11V11H9V5ZM10 0C15.5 0 20 4.5 20 10L19.92 11.31C19.31 11.11 18.67 11 17.94 11L18 10C18 5.58 14.42 2 10 2C5.58 2 2 5.58 2 10C2 14.42 5.58 18 10 18C10.71 18 11.39 17.91 12.05 17.74C12.13 18.42 12.33 19.06 12.62 19.65C11.78 19.88 10.9 20 10 20C4.47 20 0 15.5 0 10C0 4.5 4.47 0 10 0Z" fill="#0F7E7E"/>
</svg>

