<svg width="32" height="20" viewBox="0 0 32 20" fill="none" xmlns="http://www.w3.org/2000/svg">
<path d="M7.47932 19.5971L0.479132 13.0992C-0.159243 12.5064 -0.160181 11.4944 0.479132 10.9008L7.47932 4.40238C8.43557 3.5145 10 4.19138 10 5.50156V9.5L27 9.5V4.2515C27 4.15301 27.0194 4.05548 27.0571 3.96449C27.0948 3.8735 27.15 3.79082 27.2197 3.72119L30.7197 0.221191C31.1921 -0.251309 32 0.0833164 32 0.751504V13C32 13.8284 31.3284 14.5 30.5 14.5L10 14.5V18.4979C10 19.8027 8.43944 20.4886 7.47932 19.5971Z" fill="#190B72"/>
</svg>

