<svg width="32" height="32" viewBox="0 0 31 30" fill="none" xmlns="http://www.w3.org/2000/svg">
<path d="M15.8451 5.80645C12.6064 5.80645 9.97876 8.40726 9.97876 11.6129C9.97876 14.8185 12.6064 17.4194 15.8451 17.4194C19.0838 17.4194 21.7114 14.8185 21.7114 11.6129C21.7114 8.40726 19.0838 5.80645 15.8451 5.80645ZM15.8451 14.5161C14.2257 14.5161 12.9119 13.2157 12.9119 11.6129C12.9119 10.0101 14.2257 8.70968 15.8451 8.70968C17.4644 8.70968 18.7782 10.0101 18.7782 11.6129C18.7782 13.2157 17.4644 14.5161 15.8451 14.5161ZM15.8451 0C7.47335 0 0.69043 6.71371 0.69043 15C0.69043 23.2863 7.47335 30 15.8451 30C24.2168 30 30.9997 23.2863 30.9997 15C30.9997 6.71371 24.2168 0 15.8451 0ZM15.8451 27.0968C12.808 27.0968 10.0338 25.9899 7.89499 24.1694C8.80549 22.7782 10.3637 21.8347 12.1481 21.7802C13.4191 22.1673 14.629 22.3609 15.8451 22.3609C17.0611 22.3609 18.271 22.1734 19.5421 21.7802C21.3264 21.8407 22.8846 22.7782 23.7951 24.1694C21.6564 25.9899 18.8821 27.0968 15.8451 27.0968ZM25.7872 22.0101C24.2962 20.1109 21.9925 18.871 19.3649 18.871C18.7416 18.871 17.7761 19.4516 15.8451 19.4516C13.9202 19.4516 12.9486 18.871 12.3253 18.871C9.70377 18.871 7.40002 20.1109 5.90289 22.0101C4.47298 20.0323 3.62359 17.6129 3.62359 15C3.62359 8.32863 9.10492 2.90323 15.8451 2.90323C22.5852 2.90323 28.0666 8.32863 28.0666 15C28.0666 17.6129 27.2172 20.0323 25.7872 22.0101Z" fill="#190B72"/>
</svg>
