<svg width="32" height="32" viewBox="0 0 32 32" fill="none" xmlns="http://www.w3.org/2000/svg">
<path d="M31.7144 7.87744C31.5672 7.64112 31.3707 7.44796 31.1416 7.31451C30.9126 7.18106 30.6578 7.1113 30.3992 7.11121H8.53257L6.68622 2.18671C6.44484 1.53765 6.03507 0.9831 5.5091 0.593684C4.98312 0.204268 4.36474 -0.00239222 3.7327 2.0894e-05H0V3.55561H3.7327L11.3229 23.7958C11.4445 24.1197 11.6496 24.3963 11.9124 24.5908C12.1752 24.7854 12.4839 24.8892 12.7997 24.8892H25.5993C26.2665 24.8892 26.8633 24.4287 27.0985 23.7372L31.8984 9.51479C31.9891 9.24566 32.0197 8.95612 31.9877 8.67095C31.9556 8.38579 31.8618 8.11351 31.7144 7.87744ZM24.4905 21.3336H13.8668L9.86694 10.6668H28.0905L24.4905 21.3336Z" fill="black"/>
<path d="M13.5992 32.0004C14.9246 32.0004 15.9991 30.8065 15.9991 29.3337C15.9991 27.8609 14.9246 26.667 13.5992 26.667C12.2737 26.667 11.1992 27.8609 11.1992 29.3337C11.1992 30.8065 12.2737 32.0004 13.5992 32.0004Z" fill="black"/>
<path d="M24.7994 32.0004C26.1248 32.0004 27.1993 30.8065 27.1993 29.3337C27.1993 27.8609 26.1248 26.667 24.7994 26.667C23.4739 26.667 22.3994 27.8609 22.3994 29.3337C22.3994 30.8065 23.4739 32.0004 24.7994 32.0004Z" fill="black"/>
</svg>
